<?xml version="1.0" ?><!DOCTYPE svg  PUBLIC '-//W3C//DTD SVG 1.1//EN'  'http://www.w3.org/Graphics/SVG/1.1/DTD/svg11.dtd'><svg height="512px" id="icons" style="enable-background:new 0 0 512 512;" version="1.1" viewBox="0 0 512 512" width="512px" xml:space="preserve" xmlns="http://www.w3.org/2000/svg" xmlns:xlink="http://www.w3.org/1999/xlink"><style type="text/css"><![CDATA[
	.st0{fill:none;}
	.st1{fill:#373737;}
]]></style><g><g><path class="st1" d="M200.233,118.546c6.564,0,12.978,1.236,19.063,3.674l9.976,3.997l5.802-9.046     c10.398-16.213,28.074-25.893,47.282-25.893c23.7,0,44.958,14.998,52.898,37.321l3.917,11.171l11.478-2.914     c0.046-0.012,4.713-1.138,10.375-1.138c1.389,0,2.727,0.069,3.978,0.204c14.779,1.598,22.771,9.222,27.004,18.078h26.171     c0.463,0,0.924,0.017,1.385,0.039c-2.124-7.622-5.373-14.552-9.701-20.544c-9.675-13.394-24.22-21.493-42.063-23.422     c-2.175-0.235-4.454-0.354-6.772-0.354c-1.963,0-3.837,0.084-5.573,0.218c-13.907-27.093-42.07-44.658-73.095-44.658     c-24.683,0-47.63,10.914-63.151,29.626c-6.179-1.567-12.527-2.358-18.971-2.358c-37.192,0-68.328,26.406-75.658,61.454h26.876     C158.144,133.446,177.477,118.546,200.233,118.546z"/><path class="st1" d="M426.761,176.123c-1.163-1.452-2.665-2.549-4.338-3.251c-1.331-0.558-2.768-0.871-4.247-0.871h-21.823     H148.998h-24.732c-0.427,0-0.851,0.026-1.27,0.075c-2.863,0.333-5.501,1.779-7.323,4.057c-1.716,2.147-2.536,4.84-2.37,7.542     l6.905,31.166l0.786,3.545l8.947,40.383c0.053-0.094,0.103-0.188,0.156-0.282c5.931,26.075,12.632,55.437,18.659,81.596     c-3.574-1.727-6.974-4.107-10.019-7.334c-7.897-8.373-13.108-16.562-16.003-24.718c-0.99-2.791-1.707-5.577-2.169-8.366     l-6.259-28.25l-8.218-37.091c-0.07,0.11-0.141,0.22-0.211,0.33c-6.272,9.875-11.543,20.379-14.948,31.715     c-7.763,25.843-4.078,50.292,10.922,72.913c3.633,5.479,7.92,10.852,12.88,16.11c6.473,6.863,14.12,12.129,22.666,15.761     c6.155,2.616,12.778,4.375,19.78,5.25c3.439,0.43,6.962,0.663,10.571,0.663c0.273,0,0.553-0.017,0.828-0.019     c0.016,0,0.032-0.001,0.048-0.001c3.631-0.035,7.34-0.287,11.118-0.761c1.741-0.218,3.492-0.468,5.261-0.781     c4.09-0.723,8.201-1.689,12.323-2.882c23.269-6.738,46.878-20.878,68.965-41.413c18.485-17.186,35.182-38.383,49.354-62.442     c4.723-8.017,9.164-16.35,13.294-24.964c-0.281-0.337-0.553-0.683-0.815-1.036c-2.946-3.966-4.691-8.878-4.691-14.198     c0-1.394,0.126-2.757,0.356-4.085c0.831-4.808,3.1-9.121,6.352-12.481c0.066-0.068,0.129-0.138,0.196-0.206     c4.319-4.359,10.309-7.062,16.931-7.062c6.724,0,12.793,2.789,17.126,7.267c0.646,0.668,1.255,1.373,1.821,2.113     c3.063,4.01,4.887,9.018,4.887,14.453c0,12.298-9.315,22.417-21.273,23.695c-2.667,5.614-5.462,11.113-8.369,16.503     c-15.319,28.405-33.878,53.58-54.83,74.127c-26.299,25.796-55.139,43.466-84.051,51.621c-3.771,1.063-7.543,1.973-11.311,2.709     c-2.104,0.411-4.2,0.763-6.286,1.063c-3.721,0.536-7.41,0.898-11.055,1.085c-0.004,0-0.007,0-0.011,0     c-1.971,0.101-3.93,0.153-5.874,0.153c-1.821,0-3.629-0.047-5.425-0.135c1.564,6.487,2.733,11.166,3.378,13.461     c7.987,28.426,24.931,32.671,34.32,32.671c3.987,0,34.579,0.107,66.968,0.221c34.578,0.121,70.334,0.246,75.343,0.246     c16.628,0,28.237-11.41,34.504-33.913c5.548-19.921,49.894-218.242,51.779-226.675     C429.639,182.141,428.848,178.729,426.761,176.123z"/></g><rect class="st0" height="512" width="512"/></g></svg>